<?xml version="1.0" encoding="utf-8"?>
<!-- Generator: Adobe Illustrator 18.1.0, SVG Export Plug-In . SVG Version: 6.00 Build 0)  -->
<svg version="1.1" id="Layer_1" xmlns="http://www.w3.org/2000/svg" xmlns:xlink="http://www.w3.org/1999/xlink" x="0px" y="0px"
	 viewBox="0 0 926.561 242.245" enable-background="new 0 0 926.561 242.245" xml:space="preserve">
<g>
	<path d="M102.683,241.501c2.594,0.205,3.345,0.275,5.516,0.275c2.716,0,6.808-0.07,10.491-4.496
		c3.803-4.624,4.547-11.231,4.547-18.916c0-14.09-2.591-24.021-15.579-24.021c-0.41,0-2.112,0-4.975,0.208V241.501z M93.361,194.552
		h-6.188V193.8h12.857c0.679,0,2.387-0.067,4.158-0.141c1.702,0,3.47-0.064,4.011-0.064c14.835,0,25.652,11.906,25.652,25.311
		c0,10.959-8.239,23.62-25.652,23.62c-0.607,0-2.374-0.076-4.086-0.146c-1.637-0.061-3.332-0.132-3.88-0.132H87.173v-0.746h6.188
		V194.552z"/>
</g>
<polygon points="224.165,194.552 218.038,194.552 218.038,193.8 239.617,193.8 239.617,194.552 233.496,194.552 233.496,241.501 
	239.617,241.501 239.617,242.248 218.038,242.248 218.038,241.501 224.165,241.501 "/>
<g>
	<path d="M359.793,208.431h-0.533c-0.954-4.288-2.519-8.438-5.572-11.637c-2.866-3.135-6.211-3.472-8.389-3.472
		c-8.896,0-11.696,5.649-11.696,26.198c0,18.993,3.332,23.207,11.975,23.207c8.569,0,9.248-4.352,9.248-8.64v-9.738h-7.546v-0.746
		h23.003v0.746h-6.267v17.898h-0.535c-0.686-2.241-2.528-2.241-3.07-2.241c-1.218,0-2.107,0.413-4.557,1.425
		c-3.542,1.505-6.474,2.046-10.075,2.046c-13.47,0-22.789-9.866-22.789-24.43c0-16.803,12.723-26.474,22.307-26.474
		c2.929,0,4.771,0.679,8.314,2.046c2.177,0.881,3.063,0.948,3.604,0.948c1.22,0,1.636-0.541,2.043-1.22h0.533V208.431z"/>
</g>
<polygon points="457.871,194.552 451.744,194.552 451.744,193.8 473.321,193.8 473.321,194.552 467.195,194.552 467.195,241.501 
	473.321,241.501 473.321,242.248 451.744,242.248 451.744,241.501 457.871,241.501 "/>
<g>
	<path d="M570.978,194.552c-2.728,0.064-7.212,0.269-11.221,4.829c-3.267,3.74-4.087,7.618-4.698,10.754h-0.548V193.8h42.194v16.335
		h-0.555c-0.599-3.136-1.425-7.014-4.691-10.754c-4.019-4.56-8.428-4.765-11.153-4.829v46.949h6.119v0.746h-21.638v-0.746h6.19
		V194.552z"/>
</g>
<path d="M701.1,223.94l-7.625-19.387l-7.618,19.387H701.1z M697.699,192.039h0.468l19.883,49.463h4.829v0.743H701.44v-0.743h6.602
	l-6.602-16.803h-15.929l-6.577,16.803h5.914v0.743h-11.717v-0.743h4.835L697.699,192.039z"/>
<g>
	<path d="M807.196,194.552h-6.19V193.8h21.641v0.752h-6.122v46.949h3.804c10.075,0,17.158-5.508,18.92-14.698h0.557v15.444h-38.799
		v-0.746h6.19V194.552z"/>
	<path d="M116.841,144.795h-2.953c-1.76-1.973-3.731-4.134-8.656-4.134c-7.671,0-18.292,7.086-36.38,7.086
		c-16.53,0-32.463-5.713-46.233-19.284C9.835,115.664,0,98.166,0,75.152C0,35.812,30.09,1.185,70.227,1.185
		c16.327,0,24.39,7.669,32.258,7.669c5.114,0,6.882-1.963,8.662-4.131h2.944v39.343h-2.16C107.207,23.998,98.549,3.926,68.449,3.926
		c-41.9,0-45.83,41.716-45.83,71.226c0,55.281,18.685,69.836,45.83,69.836c35.022,0,40.918-22.032,46.236-42.091h2.155V144.795z"/>
	<path d="M173.688,144.798c13.976,0,26.175-4.925,26.175-42.11c0-31.271-8.46-42.094-26.175-42.094
		c-17.694,0-26.15,10.824-26.15,42.094C147.538,139.874,159.735,144.798,173.688,144.798 M173.688,57.84
		c21.053,0,45.847,18.88,45.847,44.848c0,24.795-22.821,44.848-45.847,44.848c-23.009,0-45.825-20.053-45.825-44.848
		C127.863,76.721,152.649,57.84,173.688,57.84"/>
	<path d="M225.445,142.035h15.136V63.149h-15.136v-2.747h31.666v21.042h0.404c3.141-6.892,11.205-23.21,33.821-23.21
		c17.315,0,29.309,8.064,29.309,26.355v57.446h15.16v2.761h-47.207v-2.761h15.137V78.498c0-10.231-4.719-17.507-14.953-17.507
		c-16.915,0-31.267,15.73-31.267,36.583v44.46h15.137v2.761h-47.207V142.035z"/>
	<path d="M382.228,144.795c21.835,0,25.764-21.257,25.764-38.565c0-20.261-1.371-29.509-6.868-36.596
		c-3.945-5.108-10.044-9.04-19.694-9.04c-18.292,0-22.616,15.144-22.616,39.142C358.815,127.084,360.588,144.795,382.228,144.795
		 M392.848,2.953h32.07v139.082h15.15v2.761h-31.679v-17.123h-0.397c-1.971,6.095-8.057,19.861-25.961,19.861
		c-23.216,0-42.888-21.437-42.888-45.438c0-23.598,19.081-44.255,41.507-44.255c14.36,0,23.414,8.06,26.962,18.288h0.381V5.707
		h-15.144V2.953z"/>
	<path d="M501.833,7.868C506.951,1.573,508.328,0,511.864,0c3.541,0,6.683,3.145,6.683,6.892c0,2.748-2.161,4.332-3.525,5.306
		l-33.643,23.995h-2.754L501.833,7.868z M506.951,93.245c0.391-3.73,0.391-6.683,0.391-10.036c0-17.692-7.083-22.614-17.305-22.614
		c-17.715,0-22.243,15.534-23.422,32.65H506.951z M466.417,95.998c0,2.568-0.186,5.121-0.186,9.252
		c0,17.501,2.754,39.545,25.971,39.545c23.203,0,28.32-15.938,30.29-22.237l2.943,0.595c-1.759,5.704-7.077,24.383-33.433,24.383
		c-26.374,0-45.439-17.699-45.439-44.451c0-23.211,19.468-45.245,44.244-45.245c14.57,0,36.199,9.437,36.199,38.158H466.417z"/>
</g>
<polygon points="567.346,142.035 589.189,142.035 589.189,7.471 567.346,7.471 567.346,4.724 609.444,4.724 675.936,111.94 
	676.321,111.94 676.321,7.471 654.491,7.471 654.491,4.724 701.116,4.724 701.116,7.471 679.273,7.471 679.273,147.537 
	675.347,147.537 592.52,15.535 592.138,15.535 592.138,142.035 613.965,142.035 613.965,144.795 567.346,144.795 "/>
<g>
	<path d="M749.112,96.594h-0.387c-0.205,1.572-2.562,3.539-6.501,5.117l-14.75,5.893c-8.262,3.353-12.978,9.45-12.978,18.695
		c0,8.057,2.351,17.314,14.548,17.314c17.517,0,20.068-16.72,20.068-27.351V96.594z M783.54,142.621
		c-3.336,2.562-8.057,4.916-14.749,4.916c-12.592,0-17.318-5.707-19.483-15.336h-0.391c-1.966,4.925-6.487,15.336-25.958,15.336
		c-21.843,0-25.378-11.016-25.378-19.073c0-18.496,16.124-20.264,30.675-24.987c17.52-5.709,21.455-6.882,21.455-22.618
		c0-12.592-2.171-20.264-15.153-20.264c-8.658,0-14.951,2.952-14.951,9.636c0,4.528,1.185,9.251,1.185,11.413
		c0,3.538-2.763,6.491-7.669,6.491c-8.659,0-9.646-3.545-9.646-8.467c0-11.602,10.629-21.827,30.69-21.827
		c24.2,0,31.87,13.177,31.87,27.146v48.983c0,7.475,2.559,9.645,6.885,9.645c2.76,0,6.296-1.185,9.05-3.148L783.54,142.621z"/>
	<path d="M791.212,117.243h2.172c3.525,12.387,11.201,27.553,31.074,27.553c8.454,0,16.127-4.922,16.127-16.332
		c0-10.039-6.091-12.982-12.783-15.342l-15.333-5.316c-8.079-2.748-19.489-6.687-19.489-23.998
		c0-14.753,12.009-25.967,28.328-25.967c11.409,0,13.386,4.127,18.884,4.127c1.774,0,2.565-0.589,3.157-1.566h2.155v22.419h-2.155
		c-3.737-11.807-8.655-22.227-22.041-22.227c-12.585,0-19.855,6.094-19.855,15.534c0,8.46,6.091,12.009,17.504,15.544l14.359,4.724
		c12.188,4.127,21.039,11.211,21.039,23.213c0,14.359-11.41,27.924-31.265,27.924c-11.608,0-19.095-5.499-24.997-5.499
		c-2.946,0-3.92,1.374-4.71,2.761h-2.172V117.243z"/>
	<path d="M863.415,60.402h15.15V35.024c1.96,0.788,3.142,1.364,7.67,1.364c3.938,0,6.685-0.977,9.251-2.946v26.96h27.924v2.747
		h-27.924v64.335c0,14.743,6.488,17.311,11.788,17.311c9.251,0,14.964-7.871,16.533-16.524l2.754,0.983
		c-1.384,6.684-5.713,18.279-21.644,18.279c-19.665,0-26.352-8.058-26.352-21.824v-62.56h-15.15V60.402z"/>
</g>
</svg>
